<?xml version="1.0" encoding="UTF-8"?>
<svg id="Layer_1" data-name="Layer 1" xmlns="http://www.w3.org/2000/svg" viewBox="0 0 450 450">
  <path d="m421.16,337.51c0,37.15,0,74.29-.04,111.44,0,.36-.67,1.02-1.02,1.02-129.65.04-259.3.04-388.94,0-.36,0-1.02-.67-1.02-1.02-.04-149.29-.04-298.59,0-447.88,0-.36.67-1.02,1.02-1.02,129.65-.04,259.3-.04,388.94,0,.36,0,1.02.67,1.02,1.02.05,36.34.04,72.69.04,109.03-2.23-.36-4.45-1.02-6.68-1.02-51.37-.06-102.75-.05-154.12-.05-.48,0-1,.04-1.45-.11-1.94-.64-3.86-1.92-5.8-1.94-17.67-.15-35.35-.09-53.02-.09-.35,0-.71,0-1.04.11-2.02.66-4.04,1.93-6.06,1.93-50.75.11-101.5.08-152.25.09-6.65,0-9,.6-8.47,7.92.04.56.18,1.57.37,1.6.8.1,1.66.01,2.44-.22,1.86-.54,3.64-1.48,5.52-1.74,2.23-.31,4.53-.07,6.8-.07,42.16,0,84.32,0,126.48.03.5,0,1.04.45,1.5.78.54.39,1.02,1.27,1.53,1.27,32.54.06,65.09.06,97.63.01.92,0,1.84-.65,2.76-1-.08-.37-.16-.73-.24-1.1h1.45c44.87,0,89.75,0,134.62.07.54,0,1.55,1.03,1.55,1.57.07,72.19.11,144.38-.05,216.58,0,3.84,1.13,4.79,4.45,4.08.75-.16,1.39-.85,2.08-1.29Zm-195.62-42.51v10.4c-2.54,1.41-4.95,2.68-7.28,4.07-3.17,1.9-6.23,4-9.44,5.82-4.26,2.41-8.66,4.58-12.95,6.96-4.77,2.65-9.52,5.34-14.17,8.19-.92.57-1.6,1.84-1.96,2.93-.33.99-.07,2.18-.07,3.01-23.93,13.88-47.63,27.63-71.56,41.51-.46,2.24,0,4.39,3.02,5.13,2.36.58,5.23,2.25,7,1.47,5.32-2.35,10.24-5.63,15.28-8.62,5.65-3.35,11.21-6.84,16.88-10.15,7.37-4.3,14.81-8.47,22.21-12.73,6.76-3.89,13.48-7.82,20.24-11.71.89-.51,1.86-1.02,2.84-1.16.59-.08,1.26.68,1.94.84,5.4,1.21,8.89-2.92,13.02-4.97,5.21-2.58,10.02-5.96,15.02-9v10.36c-1.86,1.12-3.79,1.88-5.11,3.23-.69.71-.29,2.46-.44,3.73-.05.42-.13,1.03-.41,1.2-3.32,1.94-6.69,3.77-10.01,5.72-3.8,2.23-7.5,4.63-11.34,6.79-4.27,2.4-8.73,4.47-12.96,6.92-4.93,2.87-9.65,6.1-14.57,8.99-5.53,3.25-11.19,6.27-16.78,9.41-4.83,2.72-9.61,5.52-14.45,8.21-5.5,3.06-6.03,4.35-2.3,6.67,1.92,1.19,4.29,2.58,6.34,2.42,2.47-.2,4.87-1.84,7.2-3.04,3.54-1.82,7.06-3.71,10.49-5.75,4.97-2.95,9.78-6.16,14.78-9.05,6.1-3.53,12.35-6.81,18.49-10.28,3.46-1.96,6.82-4.11,10.25-6.12,3.4-1.99,6.84-3.92,10.27-5.86,3.48-1.97,6.97-3.92,10.61-5.97,0,6.33.02,12.43-.03,18.53,0,.45-.33,1.09-.7,1.31-2.93,1.74-5.9,3.39-8.86,5.07-3.68,2.09-7.38,4.15-11.03,6.28-3.05,1.78-6.03,3.69-9.1,5.44-3.56,2.03-7.22,3.89-10.79,5.92-3.98,2.26-7.92,4.6-11.83,6.97-3.36,2.04-6.73,4.07-9.91,6.36-.55.4-.66,2.59-.16,3.04,1.41,1.26,3.14,2.42,4.94,2.9,1.9.5,4.27.77,5.97.04,2.79-1.19,5.13-3.39,7.79-4.94,4.13-2.4,8.42-4.52,12.55-6.94,4.99-2.92,9.84-6.06,14.8-9.02,4.77-2.85,9.58-5.61,14.41-8.36.45-.25,1.09-.27,1.62-.2.15.02.3.73.31,1.12.02,5.57.05,11.13-.02,16.7,0,.64-.41,1.57-.92,1.86-3.56,2.06-7.22,3.94-10.79,5.97-3.87,2.2-7.67,4.5-11.51,6.76-2.24,1.32-4.58,2.5-6.71,3.97-1.55,1.07-3.48,2.28-4.07,3.87-.73,1.98,4,5.96,6.76,5.57,2.32-.33,4.61-1.39,6.71-2.51,3.58-1.92,7-4.14,10.49-6.23,2.74-1.64,5.45-3.33,8.25-4.87.4-.22,1.73.28,1.73.46.09,6.18.08,12.36.08,18.03-2.02,1.31-3.59,2.8-5.45,3.43-2.08.7-2.79,1.63-1.57,3.37,2.34,3.33,7.74,5.12,11.19,3.34,2.95-1.53,5.66-3.03,5.61-7.73-.31-30.95-.19-61.91-.04-92.86,0-1.02,1.83-2.02,2.81-3.03.45-.46,1.28-.92,1.28-1.38.06-41.86.06-83.73,0-125.59,0-.43-.8-1.24-1.24-1.24-7.66-.08-15.31-.06-22.97-.05-.39,0-.84-.03-1.16.15-1.86,1-3.69,2.04-5.52,3.08-3.68,2.09-7.37,4.16-11.04,6.28-3.09,1.79-6.13,3.67-9.23,5.46-3.66,2.12-7.38,4.15-11.04,6.27-3.13,1.8-6.23,3.67-9.34,5.51-3.83,2.26-7.67,4.51-11.49,6.78-2.17,1.28-4.29,2.66-6.49,3.88-4.28,2.37-8.64,4.6-12.91,7-3.99,2.24-7.94,4.56-11.83,6.96-3.56,2.19-8.68,3.2-7.51,9.27.01.07-.07.16-.04.1-.67.22-1.32.29-1.81.6-3.11,1.93-6.13,4.01-9.29,5.87-4.77,2.8-9.64,5.43-14.43,8.19-4.46,2.57-8.85,5.28-13.33,7.84-5.57,3.18-11.21,6.25-16.78,9.42-3.39,1.93-6.7,4.02-10.1,5.95-2.22,1.26-4.57,2.3-6.8,3.54-4.06,2.26-8.23,4.38-12,7.06-1.1.79-.99,3.3-1.39,5.03-.1.43-.03.9-.06,1.36-.1,1.7-.21,3.41-.32,5.11,1.71-.12,3.61.18,5.09-.47,1.99-.87,3.56-2.62,5.47-3.73,4.24-2.47,8.59-4.74,12.86-7.18,3.19-1.82,6.27-3.84,9.47-5.64,4.16-2.34,8.44-4.49,12.59-6.85,3.46-1.96,6.8-4.14,10.24-6.14,3.41-1.99,6.89-3.83,10.3-5.81,3.25-1.89,6.44-3.89,9.67-5.81,3.87-2.31,7.72-4.66,11.66-6.84,1.44-.79,3.09-1.28,4.71-1.62.57-.12,1.43,1.07,1.97.94,2.16-.55,4.35-1.18,6.33-2.16,3.53-1.75,6.96-3.72,10.36-5.72,5.66-3.33,11.21-6.84,16.9-10.11,6.11-3.52,12.35-6.81,18.48-10.28,3.46-1.96,6.82-4.11,10.26-6.11,3.33-1.94,6.73-3.76,10.07-5.69,3.29-1.91,6.48-3.99,9.8-5.85,2.33-1.3,4.93-2.15,7.19-3.55,3.68-2.27,7.2-4.82,10.88-7.32,0,3.07.17,6.1-.1,9.1-.09,1.02-1.1,2.26-2.03,2.84-3.59,2.23-7.34,4.21-11.01,6.33-3.09,1.79-6.12,3.69-9.23,5.46-3.56,2.04-7.21,3.92-10.75,5.99-3.09,1.81-6.02,3.88-9.12,5.67-5.44,3.13-11,6.09-16.44,9.21-3.78,2.17-7.43,4.56-11.2,6.76-4.85,2.83-9.75,5.59-14.66,8.32-3.08,1.71-6.22,3.32-9.71,5.17.28,1.4.62,3.07.91,4.51-3.01,1.73-6.23,3.57-9.43,5.44-3.77,2.2-7.53,4.44-11.3,6.64-3.95,2.31-7.92,4.57-11.85,6.91-2.04,1.21-3.96,2.62-6.04,3.77-3.64,2.01-7.38,3.86-11.04,5.84-2.25,1.22-4.43,2.57-6.65,3.83-3.57,2.03-7.16,4.01-10.72,6.06-3.28,1.88-6.58,3.72-9.76,5.76-1.32.85-4.06,1.04-2.89,3.62.58,1.29,1.94,2.39,3.2,3.18,2.44,1.53,5,2.75,7.91.77,1.87-1.27,3.91-2.31,5.89-3.41,4.29-2.39,8.64-4.66,12.88-7.14,4.3-2.51,8.44-5.32,12.76-7.8,4.83-2.76,9.87-5.17,14.7-7.95,4.96-2.86,9.72-6.09,14.67-8.97,5.05-2.94,10.23-5.66,15.43-8.52,2.07,2.49,2.66,2.66,5.87,1,2.01-1.04,3.93-2.27,5.92-3.36,4.19-2.29,8.47-4.44,12.59-6.85,4.99-2.92,9.8-6.13,14.78-9.05,5.4-3.17,10.94-6.1,16.37-9.22,3.87-2.22,7.65-4.6,11.49-6.87,4.03-2.38,8.06-4.76,12.14-7.04,1.97-1.1,4.07-1.99,6.4-3.12,0,2.93.28,5.34-.11,7.62-.23,1.33-1.32,2.75-2.42,3.63-1.49,1.19-3.4,1.83-5.06,2.82-3.07,1.83-6.05,3.83-9.16,5.6-3.56,2.03-7.28,3.78-10.81,5.87-4.91,2.9-9.65,6.1-14.57,8.99-5.53,3.24-11.19,6.27-16.77,9.41-4.05,2.28-8.08,4.6-12.11,6.91-1.58.91-3.6,1.57-2.7,4.09.25.72.73,1.35.88,1.61-4.07,2.36-8.02,4.63-11.95,6.93-3.05,1.79-6.04,3.67-9.11,5.41-4.34,2.45-8.77,4.74-13.09,7.21-3.11,1.77-6.05,3.83-9.17,5.58-4.27,2.4-8.66,4.56-12.94,6.94-4.1,2.28-8.34,4.43-12.08,7.22-1.45,1.08-4.93,1.06-4.04,4.13.41,1.43,1.89,3.03,3.27,3.59,2.18.88,4.81,1.61,7.01,1.18,2.2-.43,4.07-2.43,6.16-3.62,5.51-3.15,11.08-6.2,16.59-9.36,3.26-1.87,6.41-3.93,9.68-5.78,4.12-2.33,8.36-4.47,12.46-6.82,3.26-1.87,6.38-4,9.61-5.93,3.94-2.36,7.89-4.7,11.93-6.9,2.04-1.11,4.22-2.01,6.43-2.73.58-.19,1.52,1.01,2.25.96,1.41-.1,2.91-.4,4.16-1.04,4.33-2.22,8.61-4.52,12.81-6.97,4.95-2.89,9.74-6.06,14.7-8.93,4.17-2.41,8.57-4.43,12.74-6.83,5.18-2.99,10.23-6.2,15.33-9.31Zm68.41,29.69c.01-.25.05-.64.05-1.03,0-45.83,0-91.65-.06-137.48,0-.42-.92-1.2-1.41-1.2-43.41-.06-86.81-.09-130.22.06-2.38,0-4.82,1.56-7.12,2.64-2.23,1.06-4.31,2.42-6.44,3.68-2.2,1.3-4.36,2.65-6.57,3.93-2.09,1.21-4.2,2.39-6.32,3.54-1.73.93-3.57,1.68-5.25,2.69-3.09,1.86-6.08,3.91-9.16,5.79-2.58,1.57-5.22,3.03-7.86,4.49-2.09,1.17-4.22,2.28-6.55,3.53,0-.07.03.24-.04.54-.43,1.74-.31,4.19-1.43,5.06-3.24,2.52-6.97,4.41-10.52,6.51-1.43.85-2.93,1.58-4.36,2.41-1.93,1.12-3.84,2.3-5.76,3.45-.48.29-.98.55-1.47.82-3.53,1.96-7.07,3.91-10.59,5.89-2.19,1.23-4.37,2.5-6.56,3.73-3.54,2-7.12,3.93-10.62,5.99-3.08,1.82-6.02,3.87-9.12,5.65-3.65,2.1-7.42,3.99-11.1,6.04-1.12.63-2.73,1.33-3.01,2.31-.76,2.66-1.09,5.48-1.23,8.25-.04.84.9,2.13,1.72,2.5.69.31,1.88-.35,2.78-.73.67-.28,1.21-.84,1.85-1.2,3.48-1.95,7.02-3.79,10.45-5.83,4.93-2.93,9.71-6.11,14.67-8.98,6.14-3.55,12.42-6.86,18.6-10.35,3.46-1.96,6.86-4.03,10.25-6.12,3.08-1.91,6.11-3.91,9.16-5.86.25-.16.56-.23.85-.3,1.83-.44,4.14-.12,4.46-2.91.02-.18.51-.31.76-.45.21,1.23.13,3.05.63,3.23,1.07.38,2.62.25,3.67-.27,2.97-1.47,5.77-3.27,8.66-4.91,3.58-2.03,7.21-3.97,10.78-6.03,3.22-1.86,6.35-3.87,9.57-5.73,3.53-2.04,7.14-3.93,10.67-5.97,3.25-1.88,6.44-3.88,9.67-5.8,3.84-2.28,7.62-4.68,11.57-6.74,2.37-1.24,5.03-2.72,7.57-2.74,31.56-.19,63.13-.13,94.69-.06.52,0,1.5.97,1.5,1.49.07,43.96.08,87.91.02,131.87,0,1.86.32,2.74,2.31,2.33,1.71-.36,2.06.39,2.05,2.04-.06,26.63-.04,53.26-.03,79.9,0,.83.22,1.65.34,2.48,1.33-.22,2.77-.2,3.97-.72,1.76-.76,3.36-1.92,5.3-3.06v-1.27c0-27.61,0-55.22,0-82.84,0-2.64,1.76-3.64,4.22-4.29Zm-184.95-124.67c.15.84.02,2.56.64,2.91.91.51,2.6.42,3.55-.13,2.48-1.42,4.63-3.4,7.11-4.84,8.03-4.66,16.18-9.1,24.2-13.78,4.14-2.42,8.28-3.69,13.28-3.67,47.72.21,95.44.12,143.17.19.54,0,1.54,1.03,1.54,1.58.07,43.64.07,87.29.07,130.93,0,.65,0,1.3,0,2.33,1.55-.39,2.87-.72,4.27-1.07v87.86c1.61-.57,2.94-.98,4.22-1.51,3.35-1.39,5.55-3.12,5.51-7.55-.23-28.54-.17-57.09,0-85.64.01-2.08,1.61-4.14,2.48-6.21.56-1.34,1.61-2.68,1.62-4.02.09-42.26.08-84.53,0-126.79,0-.58-1.12-1.66-1.71-1.66-60.1-.08-120.2-.09-180.3-.02-2.47,0-4.94.71-7.41,1.1-.12.02-.23.13-.34.2-4.52,2.7-9.07,5.35-13.54,8.13-1.11.69-2.11,1.69-2.87,2.76-1.51,2.11-2.53,4.66-4.32,6.45-1.21,1.21-3.51,1.22-5.12,2.14-3.17,1.81-6.19,3.89-9.29,5.84-4.42,2.77-8.84,5.53-13.28,8.28-.31.19-.72.21-1.07.35-1.46.58-3.03,1-4.35,1.81-3.43,2.12-6.65,4.59-10.13,6.61-6.14,3.56-12.43,6.84-18.61,10.31-4.17,2.34-8.24,4.87-12.41,7.21-4.36,2.44-6.26,7.12-4.72,12.06.06.19.37.47.5.43,2.41-.62,4.94-.98,7.18-2,2.56-1.17,4.82-3.01,7.29-4.4,4.13-2.32,8.39-4.41,12.47-6.81,4.98-2.92,9.79-6.14,14.77-9.06,5.55-3.26,11.22-6.31,16.81-9.49,6.34-3.61,12.64-7.28,18.81-10.83Zm157.15,137.71c.03-.4.07-.74.07-1.09,0-44.85,0-89.69-.06-134.54,0-.38-.9-1.1-1.38-1.1-25.33-.05-50.66-.08-75.99.03-1.63,0-3.29,1.04-4.86,1.78-1.47.69-2.82,1.63-4.24,2.44-2.83,1.62-5.68,3.23-8.52,4.84-2.79,1.59-5.58,3.19-8.38,4.76-2.92,1.65-5.87,3.23-8.76,4.92-3.23,1.89-6.37,3.9-9.6,5.79-3.66,2.14-7.38,4.18-11.05,6.31-3.09,1.79-6.13,3.68-9.24,5.44-4.27,2.41-8.83,4.41-12.78,7.26-1.67,1.2-2.1,4.11-3.28,6.65-1.69.99-4.05,2.39-6.42,3.78-4.44,2.62-8.86,5.29-13.33,7.85-5.53,3.16-11.1,6.25-16.66,9.35-2.92,1.63-5.91,3.13-8.79,4.83-3.14,1.86-6.2,3.87-9.27,5.84-1.26.81-2.41,1.79-3.71,2.51-3.72,2.05-7.47,4.05-11.24,5.99-1.84.95-3.79,1.7-5.64,2.62-.36.18-.71.72-.75,1.13-.15,1.57-.18,3.15-.25,4.73-.23.5-.18,1.05-.14,1.6.08,1.17-.27,2.77.36,3.4.58.57,2.4.48,3.32,0,2.51-1.3,4.78-3.06,7.24-4.47,2.48-1.41,5.14-2.5,7.6-3.95,4.34-2.54,8.53-5.32,12.88-7.85,2.31-1.34,4.88-2.21,7.2-3.53,3.38-1.93,6.58-4.16,9.94-6.1,4.1-2.36,8.33-4.5,12.45-6.84,3.43-1.95,6.79-4.04,10.16-6.11,2.17-1.32,4.29-2.72,6.44-4.05.74-.46,1.54-.83,2.31-1.24.28.69.56,1.39,1.04,2.56,1.3-.38,2.92-.57,4.26-1.29,6.29-3.36,12.53-6.83,18.75-10.34,3.43-1.93,6.74-4.07,10.15-6.03,2.36-1.36,5.24-2.12,7.08-3.96,2.3-2.3,6.03-2.09,7.81-5.31.7-1.27,3.24-1.44,4.85-2.29,3.56-1.88,7.1-3.83,10.59-5.84,3.9-2.25,7.75-4.62,11.62-6.93,3.23-1.93,6.35-4.09,9.73-5.7,3.37-1.61,6.98-3.65,10.54-3.77,13.12-.45,26.26-.2,39.39-.11.52,0,1.48.98,1.48,1.51.07,42.26.07,84.53.02,126.79,0,1.65.33,2.31,2.06,2.12.34-.04,1.13.86,1.14,1.32.06,29.04.05,58.07.06,87.11,0,.77.14,1.54.22,2.32,1.04-.23,2.15-.28,3.09-.72,1.47-.69,2.91-1.51,4.19-2.5,1.18-.91,3.03-2.12,3.04-3.21.17-28.41.15-56.83.1-85.24,0-2.25.63-3.61,3.16-3.47Zm67.4-58.06c0,1.14,0,1.94,0,2.73,0,34.03,0,68.05.06,102.08,0,.46.76,1.22,1.29,1.34,3.57.87,5.65-1.84,8.03-3.64.75-.57,1.26-1.94,1.26-2.94.06-41.82.03-83.64.1-125.46,0-3.25.59-6.51.99-9.76.27-2.19,1.06-4.38,1.01-6.55-.2-9.15-.56-18.3-1-27.44-.16-3.37-.97-6.72-1-10.08-.12-14.16-.04-28.33-.11-42.49,0-.47-.89-1.34-1.38-1.35-5.3-.1-10.6,0-15.89-.11-.92-.02-1.82-.75-2.73-1.16-.68-.31-1.36-.89-2.03-.89-63.98-.04-127.95-.04-191.93-.02-.5,0-1.29.05-1.47.35-1.29,2.24-3.4,1.78-5.38,1.77-4.5,0-8.99-.03-13.49.03-.63,0-1.3.38-1.86.72-2.52,1.52-5,3.12-7.53,4.62-4.52,2.67-9.07,5.28-13.6,7.92-2.18,1.27-4.32,2.58-6.52,3.81-4.32,2.41-8.69,4.72-12.98,7.18-3.1,1.78-6.08,3.78-9.16,5.6-3.97,2.36-7.98,4.64-11.98,6.95-2.21,1.28-4.69,2.25-6.59,3.89-2.44,2.1-7.37,1.12-7.55,6.01,0,.1-.25.18-.26.29-.23,2.77-.44,5.54-.61,8.32,0,.06.61.16.93.24,4.01,1.04,6.43-2.23,9.37-3.75,5.82-3.01,11.26-6.75,16.94-10.03,6.11-3.52,12.35-6.8,18.49-10.27,3.46-1.96,6.81-4.12,10.25-6.12,3.33-1.94,6.74-3.75,10.07-5.69,3.29-1.91,6.48-3.99,9.79-5.87,4.19-2.38,8.42-4.69,12.7-6.92.83-.43,1.92-.43,2.88-.43.13,0,.11,1.28.43,1.8.34.54,1.01,1.25,1.53,1.25,67.76.06,135.52.05,203.28.09,1.8,0,2.9-.16,2.48-2.33-.05-.24.61-.91.8-.86.82.22,1.58.64,2.36.99-.83,1.38,1.99,4.66-2.15,4.27-1.73-.16-2.17.32-2.17,2.1.06,36.43.07,72.86-.02,109.29,0,2.38,1.21,2.09,2.57,1.86.55-.09,1-.75,1.77-1.37Zm-14.61-131.06l-.2-1.11h1.44c13.18,0,26.36-.02,39.53.07.54,0,1.55,1.02,1.55,1.57.07,72.64.1,145.28-.03,217.91,0,3.25,1.5,3.02,3.5,2.73.76-.11,1.55-.6,2.16-1.11,1.41-1.2,3.88-2.51,3.89-3.78.19-74.2.17-148.39.12-222.59,0-.4-.78-1.15-1.2-1.16-17.67-.06-35.35,0-53.02-.12-1.56-.01-3.1-1.04-4.66-1.59-1.46-.52-2.92-1.47-4.37-1.48-53.87-.08-107.74-.09-161.6.04-1.82,0-3.64,1.49-5.46,2.28-.63.27-1.26.79-1.89.79-18.7.04-37.4.02-56.09.08-.93,0-1.92.6-2.76,1.12-1.46.9-2.75,2.1-4.24,2.94-6.21,3.49-12.48,6.86-18.69,10.35-2.77,1.56-5.43,3.32-8.18,4.93-1.41.82-2.94,1.45-4.35,2.27-1.57.92-2.97,2.23-4.63,2.9-6.75,2.74-7.21,3.3-7.33,10.6-.01.84,0,1.71-.16,2.53-.43,2.25,1.05,2.12,2.34,1.74,1.06-.31,2.02-1.03,2.98-1.63,4.16-2.6,8.24-5.33,12.47-7.79,4.28-2.49,8.75-4.64,13.07-7.07,3.31-1.86,6.5-3.95,9.78-5.87,4.57-2.69,9.09-5.46,13.78-7.91,2.37-1.24,5.05-2.57,7.61-2.62,12.64-.27,25.28-.15,37.93-.08.99,0,1.98.66,2.97,1.01l-.19,1.09h1.72c59.92,0,119.85,0,179.77-.04.82,0,1.64-.64,2.46-.99Zm69.1,206.61c2.08-.96,3.99-1.67,5.72-2.69,2.43-1.44,4.05-2.92,4.04-6.56-.2-73.08-.14-146.17-.21-219.25,0-.55-1-1.58-1.54-1.58-34.01-.07-68.03-.06-102.04-.1-.91,0-1.83-.55-2.72-.9-.92-.36-1.81-1.15-2.71-1.15-40.74-.06-81.47-.06-122.21,0-1.39,0-2.77.64-4.17.94-1.91.41-3.82,1.11-5.73,1.11-32.86.07-65.71.05-98.57.06-.56,0-1.23-.04-1.67.23-3.76,2.24-7.47,4.58-11.23,6.82-2.73,1.62-5.45,3.27-8.29,4.66-2.56,1.25-5.26,2.11-4.36,5.92.28,1.17-.06,2.48-.04,3.73.01.7.18,1.4.27,2.11.93-.17,1.98-.11,2.76-.55,3.34-1.9,6.59-3.97,9.9-5.92,4.53-2.67,9.01-5.43,13.66-7.86,2.37-1.24,5.06-2.6,7.61-2.62,27.51-.19,55.03-.12,82.54-.12h1.69c-.09.36-.19.72-.28,1.09.85.35,1.7,1.01,2.56,1.01,49.02.05,98.03.05,147.05,0,.96,0,1.92-.65,2.88-1l-.22-1.09c.48,0,.96,0,1.45,0,27.42,0,54.85,0,82.27.07.53,0,1.53,1.04,1.53,1.59.07,73.13.07,146.26.07,219.39,0,.75,0,1.5,0,2.7ZM55.63,100.47c.82,0,1.44,0,2.06,0,112.27,0,224.54,0,336.81,0,.36,0,.78.12,1.05-.03.4-.23.97-.64.99-1.01.14-2.33-4.28-5.38-7.7-5.38-106.97,0-213.95,0-320.92.04-2.25,0-4.62.35-6.72,1.12-2.4.88-5.08,1.88-5.56,5.25Zm314.18-16.03c.14-2.78-4.94-6.41-8.75-6.41-84.94,0-169.88-.04-254.81.07-7.17,0-14.79-1.96-21.23,3.14-.72.57-1.01,1.66-1.5,2.51.63.23,1.26.67,1.89.67,94.24.03,188.48.03,282.73.03h1.69Zm-27.43-14.97c-3.14-3.57-6.33-6.38-10.97-6.39-69.8-.04-139.61-.03-209.41.02-1.63,0-3.31.46-4.87,1-1.57.53-3.11,1.27-4.46,2.22-.69.49-.94,1.62-1.38,2.46.54.23,1.08.66,1.62.66,75.81.03,151.62.03,227.44.03h2.03Zm-25.99-15.01c.13-2.7-4.93-6.37-8.63-6.37-50.13,0-100.25,0-150.38,0-5.97,0-12.09-.79-17.26,3.27-.93.73-1.66,1.72-2.97,3.11h179.24Zm-150.85-16.08h124.11l.44-1c-3.03-1.42-6.05-4.05-9.1-4.07-35.21-.29-70.42-.2-105.63-.16-3.98,0-6.97,2.18-9.83,5.23Zm100.04-13.88c-3.17-3.02-6.14-5.28-10.32-5.28-17.49.02-34.98-.03-52.47.05-2.34.01-4.78.37-6.98,1.13-1.77.61-3.25,2.08-4.86,3.16.21.31.42.62.62.93h74Zm-30.62-12.85c-4.72-5.55-9.93-4.78-15.27-.92-.24.18-.35.54-.58.92h15.85Z" fill="#fff"/>
  <path d="m421.16,337.51c-.69.45-1.33,1.13-2.08,1.29-3.31.71-4.46-.24-4.45-4.08.15-72.19.12-144.38.05-216.58,0-.55-1.01-1.57-1.55-1.57-44.87-.07-89.75-.07-134.62-.07h-1.45c.08.37.16.73.24,1.1-.92.35-1.84,1-2.76,1-32.54.05-65.09.05-97.63-.01-.51,0-.98-.88-1.53-1.27-.46-.33-1-.78-1.5-.78-42.16-.04-84.32-.03-126.48-.03-2.27,0-4.57-.24-6.8.07-1.88.26-3.67,1.2-5.52,1.74-.78.23-1.65.31-2.44.22-.19-.02-.33-1.03-.37-1.6-.53-7.32,1.82-7.92,8.47-7.92,50.75,0,101.5.02,152.25-.09,2.02,0,4.03-1.28,6.06-1.93.33-.11.69-.11,1.04-.11,17.67,0,35.35-.07,53.02.09,1.94.02,3.86,1.29,5.8,1.94.45.15.96.11,1.45.11,51.37,0,102.75,0,154.12.05,2.23,0,4.45.67,6.68,1.02v227.42Z"/>
  <path d="m225.54,294.99c-5.1,3.11-10.15,6.32-15.33,9.31-4.17,2.41-8.57,4.43-12.74,6.83-4.97,2.86-9.75,6.04-14.7,8.93-4.2,2.45-8.49,4.76-12.81,6.97-1.25.64-2.75.94-4.16,1.04-.73.05-1.67-1.15-2.25-.96-2.21.72-4.39,1.62-6.43,2.73-4.03,2.2-7.98,4.54-11.93,6.9-3.23,1.93-6.35,4.06-9.61,5.93-4.11,2.36-8.34,4.49-12.46,6.82-3.27,1.85-6.42,3.92-9.68,5.78-5.51,3.16-11.08,6.21-16.59,9.36-2.08,1.19-3.96,3.19-6.16,3.62-2.2.43-4.84-.29-7.01-1.18-1.38-.56-2.85-2.16-3.27-3.59-.89-3.06,2.59-3.05,4.04-4.13,3.74-2.79,7.97-4.94,12.08-7.22,4.28-2.38,8.67-4.54,12.94-6.94,3.12-1.75,6.06-3.81,9.17-5.58,4.33-2.47,8.75-4.76,13.09-7.21,3.07-1.74,6.06-3.62,9.11-5.41,3.93-2.3,7.87-4.57,11.95-6.93-.14-.26-.62-.9-.88-1.61-.9-2.51,1.12-3.18,2.7-4.09,4.03-2.31,8.06-4.63,12.11-6.91,5.59-3.15,11.24-6.17,16.77-9.41,4.92-2.89,9.66-6.09,14.57-8.99,3.53-2.08,7.25-3.83,10.81-5.87,3.11-1.77,6.08-3.77,9.16-5.6,1.66-.99,3.57-1.63,5.06-2.82,1.1-.88,2.19-2.3,2.42-3.63.39-2.29.11-4.69.11-7.62-2.33,1.13-4.43,2.02-6.4,3.12-4.08,2.29-8.11,4.66-12.14,7.04-3.84,2.27-7.62,4.65-11.49,6.87-5.43,3.12-10.97,6.05-16.37,9.22-4.98,2.92-9.8,6.14-14.78,9.05-4.12,2.41-8.4,4.56-12.59,6.85-1.99,1.09-3.91,2.32-5.92,3.36-3.21,1.66-3.81,1.49-5.87-1-5.2,2.86-10.38,5.58-15.43,8.52-4.95,2.88-9.71,6.11-14.67,8.97-4.82,2.78-9.86,5.19-14.7,7.95-4.33,2.47-8.46,5.28-12.76,7.8-4.24,2.47-8.59,4.75-12.88,7.14-1.98,1.1-4.02,2.14-5.89,3.41-2.91,1.97-5.47.75-7.91-.77-1.26-.79-2.62-1.89-3.2-3.18-1.17-2.58,1.57-2.78,2.89-3.62,3.18-2.04,6.48-3.88,9.76-5.76,3.56-2.04,7.15-4.03,10.72-6.06,2.22-1.26,4.4-2.62,6.65-3.83,3.66-1.98,7.4-3.83,11.04-5.84,2.07-1.15,4-2.56,6.04-3.77,3.93-2.33,7.91-4.6,11.85-6.91,3.77-2.21,7.53-4.44,11.3-6.64,3.2-1.87,6.42-3.7,9.43-5.44-.29-1.44-.63-3.11-.91-4.51,3.49-1.85,6.63-3.46,9.71-5.17,4.91-2.73,9.8-5.49,14.66-8.32,3.77-2.19,7.42-4.59,11.2-6.76,5.45-3.13,11-6.08,16.44-9.21,3.1-1.78,6.03-3.86,9.12-5.67,3.54-2.07,7.19-3.96,10.75-5.99,3.1-1.77,6.13-3.67,9.23-5.46,3.66-2.12,7.41-4.1,11.01-6.33.93-.58,1.94-1.82,2.03-2.84.27-2.99.1-6.03.1-9.1-3.69,2.5-7.2,5.05-10.88,7.32-2.26,1.4-4.86,2.24-7.19,3.55-3.32,1.85-6.51,3.93-9.8,5.85-3.33,1.94-6.73,3.76-10.07,5.69-3.44,2-6.79,4.15-10.26,6.11-6.14,3.47-12.37,6.76-18.48,10.28-5.69,3.28-11.24,6.78-16.9,10.11-3.4,2-6.83,3.96-10.36,5.72-1.99.99-4.17,1.61-6.33,2.16-.54.14-1.4-1.05-1.97-.94-1.62.33-3.27.82-4.71,1.62-3.94,2.18-7.79,4.54-11.66,6.84-3.23,1.93-6.42,3.92-9.67,5.81-3.41,1.98-6.89,3.83-10.3,5.81-3.44,2-6.77,4.18-10.24,6.14-4.16,2.35-8.43,4.5-12.59,6.85-3.2,1.8-6.28,3.82-9.47,5.64-4.26,2.43-8.62,4.7-12.86,7.18-1.9,1.11-3.48,2.86-5.47,3.73-1.48.65-3.38.35-5.09.47.11-1.7.22-3.41.32-5.11.03-.45-.04-.92.06-1.36.4-1.73.29-4.24,1.39-5.03,3.76-2.69,7.94-4.8,12-7.06,2.23-1.24,4.58-2.28,6.8-3.54,3.4-1.93,6.7-4.02,10.1-5.95,5.58-3.17,11.22-6.23,16.78-9.42,4.47-2.56,8.86-5.27,13.33-7.84,4.79-2.76,9.66-5.39,14.43-8.19,3.16-1.86,6.18-3.93,9.29-5.87.5-.31,1.14-.39,1.81-.6-.03.06.06-.03.04-.1-1.17-6.07,3.95-7.08,7.51-9.27,3.9-2.4,7.84-4.72,11.83-6.96,4.27-2.4,8.63-4.63,12.91-7,2.2-1.22,4.32-2.59,6.49-3.88,3.83-2.27,7.66-4.52,11.49-6.78,3.11-1.84,6.21-3.7,9.34-5.51,3.67-2.11,7.38-4.15,11.04-6.27,3.09-1.79,6.13-3.67,9.23-5.46,3.66-2.12,7.36-4.19,11.04-6.28,1.83-1.04,3.67-2.09,5.52-3.08.32-.17.77-.14,1.16-.15,7.66,0,15.32-.03,22.97.05.43,0,1.23.81,1.24,1.24.06,41.86.06,83.73,0,125.59,0,.46-.84.92-1.28,1.38-.98,1.01-2.81,2.02-2.81,3.03-.15,30.95-.28,61.91.04,92.86.05,4.7-2.66,6.2-5.61,7.73-3.45,1.79-8.86,0-11.19-3.34-1.22-1.74-.5-2.67,1.57-3.37,1.86-.63,3.43-2.11,5.45-3.43,0-5.67.02-11.85-.08-18.03,0-.18-1.33-.68-1.73-.46-2.79,1.54-5.51,3.23-8.25,4.87-3.49,2.09-6.91,4.31-10.49,6.23-2.1,1.12-4.4,2.19-6.71,2.51-2.76.39-7.49-3.59-6.76-5.57.58-1.58,2.52-2.8,4.07-3.87,2.13-1.47,4.47-2.65,6.71-3.97,3.84-2.25,7.64-4.56,11.51-6.76,3.57-2.03,7.23-3.91,10.79-5.97.51-.29.91-1.22.92-1.86.07-5.57.04-11.13.02-16.7,0-.39-.15-1.1-.31-1.12-.53-.07-1.17-.05-1.62.2-4.82,2.75-9.64,5.52-14.41,8.36-4.96,2.96-9.82,6.1-14.8,9.02-4.12,2.41-8.42,4.53-12.55,6.94-2.66,1.55-5,3.75-7.79,4.94-1.7.73-4.08.46-5.97-.04-1.8-.47-3.53-1.64-4.94-2.9-.5-.45-.39-2.65.16-3.04,3.18-2.29,6.55-4.32,9.91-6.36,3.91-2.37,7.85-4.71,11.83-6.97,3.56-2.03,7.22-3.89,10.79-5.92,3.07-1.75,6.04-3.66,9.1-5.44,3.66-2.13,7.35-4.19,11.03-6.28,2.96-1.68,5.93-3.34,8.86-5.07.37-.22.7-.86.7-1.31.05-6.1.03-12.2.03-18.53-3.64,2.05-7.13,4-10.61,5.97-3.43,1.94-6.87,3.87-10.27,5.86-3.43,2.01-6.79,4.16-10.25,6.12-6.14,3.47-12.39,6.75-18.49,10.28-5,2.89-9.81,6.1-14.78,9.05-3.43,2.03-6.95,3.92-10.49,5.75-2.33,1.2-4.73,2.85-7.2,3.04-2.05.16-4.42-1.22-6.34-2.42-3.73-2.32-3.2-3.61,2.3-6.67,4.84-2.69,9.62-5.49,14.45-8.21,5.59-3.15,11.25-6.17,16.78-9.41,4.92-2.89,9.64-6.12,14.57-8.99,4.23-2.46,8.69-4.53,12.96-6.92,3.84-2.16,7.54-4.56,11.34-6.79,3.31-1.94,6.69-3.78,10.01-5.72.28-.16.36-.78.41-1.2.14-1.27-.25-3.02.44-3.73,1.32-1.35,3.24-2.11,5.11-3.23v-10.36c-5,3.04-9.81,6.42-15.02,9-4.14,2.05-7.63,6.18-13.02,4.97-.68-.15-1.35-.92-1.94-.84-.99.14-1.96.65-2.84,1.16-6.76,3.88-13.48,7.82-20.24,11.71-7.4,4.26-14.84,8.43-22.21,12.73-5.67,3.31-11.23,6.8-16.88,10.15-5.04,2.99-9.95,6.27-15.28,8.62-1.77.78-4.64-.89-7-1.47-3.02-.74-3.47-2.89-3.02-5.13,23.92-13.88,47.63-27.63,71.56-41.51,0-.83-.26-2.02.07-3.01.36-1.09,1.04-2.37,1.96-2.93,4.65-2.85,9.4-5.55,14.17-8.19,4.28-2.38,8.68-4.55,12.95-6.96,3.21-1.82,6.27-3.92,9.44-5.82,2.33-1.39,4.74-2.66,7.28-4.07v-10.4Z"/>
  <path d="m293.95,324.68c-2.45.65-4.21,1.64-4.22,4.29-.01,27.61,0,55.22,0,82.84v1.27c-1.94,1.15-3.53,2.3-5.3,3.06-1.2.52-2.64.5-3.97.72-.12-.83-.34-1.65-.34-2.48-.02-26.63-.03-53.26.03-79.9,0-1.65-.34-2.4-2.05-2.04-1.99.41-2.31-.47-2.31-2.33.06-43.96.05-87.91-.02-131.87,0-.52-.98-1.49-1.5-1.49-31.56-.07-63.13-.13-94.69.06-2.54.01-5.19,1.5-7.57,2.74-3.95,2.06-7.73,4.46-11.57,6.74-3.23,1.92-6.42,3.92-9.67,5.8-3.53,2.04-7.14,3.93-10.67,5.97-3.22,1.86-6.35,3.87-9.57,5.73-3.57,2.06-7.2,4-10.78,6.03-2.89,1.63-5.69,3.43-8.66,4.91-1.05.52-2.6.66-3.67.27-.51-.18-.42-2-.63-3.23-.25.14-.74.27-.76.45-.32,2.79-2.63,2.47-4.46,2.91-.29.07-.6.14-.85.3-3.06,1.95-6.08,3.95-9.16,5.86-3.38,2.09-6.79,4.17-10.25,6.12-6.18,3.49-12.46,6.79-18.6,10.35-4.96,2.87-9.74,6.05-14.67,8.98-3.43,2.04-6.97,3.88-10.45,5.83-.64.36-1.19.92-1.85,1.2-.9.38-2.09,1.03-2.78.73-.82-.37-1.76-1.66-1.72-2.5.14-2.77.47-5.59,1.23-8.25.28-.98,1.89-1.68,3.01-2.31,3.68-2.06,7.45-3.94,11.1-6.04,3.1-1.78,6.04-3.84,9.12-5.65,3.5-2.06,7.08-3.99,10.62-5.99,2.19-1.24,4.36-2.5,6.56-3.73,3.52-1.97,7.06-3.92,10.59-5.89.49-.27.99-.53,1.47-.82,1.92-1.15,3.83-2.32,5.76-3.45,1.44-.84,2.93-1.57,4.36-2.41,3.55-2.1,7.28-4,10.52-6.51,1.11-.87,1-3.32,1.43-5.06.07-.29.04-.61.04-.54,2.33-1.25,4.46-2.36,6.55-3.53,2.64-1.47,5.28-2.93,7.86-4.49,3.09-1.88,6.07-3.93,9.16-5.79,1.68-1.01,3.52-1.76,5.25-2.69,2.13-1.14,4.24-2.32,6.32-3.54,2.21-1.28,4.37-2.63,6.57-3.93,2.13-1.26,4.21-2.63,6.44-3.68,2.29-1.09,4.73-2.63,7.12-2.64,43.4-.16,86.81-.12,130.22-.06.49,0,1.41.78,1.41,1.2.06,45.83.06,91.65.06,137.48,0,.39-.04.78-.05,1.03Z"/>
  <path d="m109,200.01c-6.17,3.56-12.48,7.22-18.81,10.83-5.59,3.19-11.26,6.23-16.81,9.49-4.98,2.92-9.79,6.14-14.77,9.06-4.08,2.39-8.34,4.48-12.47,6.81-2.47,1.39-4.72,3.23-7.29,4.4-2.23,1.02-4.77,1.38-7.18,2-.13.03-.44-.25-.5-.43-1.53-4.94.37-9.63,4.72-12.06,4.18-2.34,8.24-4.87,12.41-7.21,6.19-3.47,12.48-6.76,18.61-10.31,3.48-2.02,6.7-4.49,10.13-6.61,1.32-.82,2.89-1.23,4.35-1.81.35-.14.76-.16,1.07-.35,4.43-2.75,8.86-5.5,13.28-8.28,3.1-1.95,6.12-4.03,9.29-5.84,1.6-.92,3.91-.93,5.12-2.14,1.79-1.79,2.81-4.34,4.32-6.45.76-1.07,1.76-2.07,2.87-2.76,4.47-2.78,9.02-5.43,13.54-8.13.11-.07.22-.18.34-.2,2.47-.39,4.94-1.1,7.41-1.1,60.1-.06,120.2-.05,180.3.02.6,0,1.71,1.08,1.71,1.66.08,42.26.09,84.53,0,126.79,0,1.34-1.06,2.68-1.62,4.02-.86,2.07-2.46,4.14-2.48,6.21-.17,28.55-.22,57.09,0,85.64.04,4.43-2.17,6.16-5.51,7.55-1.28.53-2.61.94-4.22,1.51v-87.86c-1.4.35-2.72.68-4.27,1.07,0-1.03,0-1.68,0-2.33,0-43.64,0-87.29-.07-130.93,0-.55-1-1.58-1.54-1.58-47.72-.07-95.44.02-143.17-.19-5-.02-9.13,1.25-13.28,3.67-8.02,4.68-16.17,9.12-24.2,13.78-2.47,1.44-4.63,3.42-7.11,4.84-.95.54-2.64.63-3.55.13-.63-.35-.49-2.07-.64-2.91Z"/>
  <path d="m266.14,337.73c-2.53-.14-3.16,1.22-3.16,3.47.04,28.41.06,56.83-.1,85.24,0,1.09-1.86,2.3-3.04,3.21-1.28.99-2.72,1.81-4.19,2.5-.94.44-2.05.49-3.09.72-.08-.77-.22-1.54-.22-2.32-.01-29.04,0-58.07-.06-87.11,0-.47-.79-1.36-1.14-1.32-1.73.19-2.06-.47-2.06-2.12.05-42.26.05-84.53-.02-126.79,0-.53-.96-1.5-1.48-1.51-13.13-.08-26.27-.34-39.39.11-3.56.12-7.16,2.17-10.54,3.77-3.38,1.61-6.5,3.77-9.73,5.7-3.87,2.31-7.71,4.67-11.62,6.93-3.49,2.01-7.02,3.96-10.59,5.84-1.61.85-4.15,1.02-4.85,2.29-1.78,3.22-5.51,3.01-7.81,5.31-1.84,1.84-4.72,2.61-7.08,3.96-3.41,1.96-6.72,4.09-10.15,6.03-6.21,3.51-12.45,6.98-18.75,10.34-1.34.72-2.96.91-4.26,1.29-.48-1.17-.76-1.86-1.04-2.56-.77.41-1.57.78-2.31,1.24-2.16,1.33-4.28,2.73-6.44,4.05-3.37,2.06-6.73,4.15-10.16,6.11-4.12,2.34-8.35,4.48-12.45,6.84-3.37,1.94-6.57,4.17-9.94,6.1-2.32,1.32-4.89,2.19-7.2,3.53-4.35,2.52-8.55,5.31-12.88,7.85-2.46,1.44-5.12,2.53-7.6,3.95-2.46,1.41-4.73,3.16-7.24,4.47-.92.48-2.74.57-3.32,0-.63-.62-.28-2.22-.36-3.4-.04-.55-.09-1.1.14-1.6.07-1.58.1-3.16.25-4.73.04-.41.39-.95.75-1.13,1.86-.92,3.8-1.67,5.64-2.62,3.77-1.94,7.53-3.94,11.24-5.99,1.3-.72,2.45-1.71,3.71-2.51,3.07-1.97,6.13-3.98,9.27-5.84,2.88-1.7,5.87-3.2,8.79-4.83,5.57-3.1,11.14-6.19,16.66-9.35,4.48-2.56,8.89-5.23,13.33-7.85,2.36-1.39,4.73-2.79,6.42-3.78,1.18-2.54,1.61-5.45,3.28-6.65,3.95-2.85,8.51-4.85,12.78-7.26,3.11-1.76,6.14-3.65,9.24-5.44,3.67-2.12,7.39-4.16,11.05-6.31,3.22-1.89,6.37-3.9,9.6-5.79,2.89-1.69,5.85-3.27,8.76-4.92,2.8-1.58,5.59-3.18,8.38-4.76,2.84-1.61,5.68-3.22,8.52-4.84,1.41-.81,2.77-1.74,4.24-2.44,1.56-.74,3.23-1.77,4.86-1.78,25.33-.11,50.66-.08,75.99-.03.48,0,1.38.72,1.38,1.1.06,44.85.06,89.69.06,134.54,0,.35-.05.69-.07,1.09Z"/>
  <path d="m333.54,279.67c-.77.62-1.22,1.28-1.77,1.37-1.35.23-2.57.51-2.57-1.86.09-36.43.08-72.86.02-109.29,0-1.78.43-2.26,2.17-2.1,4.15.38,1.33-2.89,2.15-4.27-.78-.35-1.54-.76-2.36-.99-.19-.05-.85.62-.8.86.41,2.17-.69,2.33-2.48,2.33-67.76-.04-135.52-.03-203.28-.09-.53,0-1.19-.71-1.53-1.25-.32-.52-.3-1.8-.43-1.8-.97,0-2.06,0-2.88.43-4.27,2.23-8.51,4.54-12.7,6.92-3.31,1.88-6.5,3.95-9.79,5.87-3.33,1.94-6.74,3.75-10.07,5.69-3.44,2-6.79,4.16-10.25,6.12-6.14,3.47-12.38,6.76-18.49,10.27-5.69,3.28-11.12,7.02-16.94,10.03-2.94,1.52-5.36,4.78-9.37,3.75-.32-.08-.94-.18-.93-.24.17-2.77.38-5.55.61-8.32,0-.1.25-.19.26-.29.18-4.89,5.11-3.9,7.55-6.01,1.9-1.64,4.38-2.61,6.59-3.89,4-2.31,8.01-4.59,11.98-6.95,3.08-1.83,6.05-3.82,9.16-5.6,4.29-2.46,8.66-4.77,12.98-7.18,2.2-1.23,4.35-2.54,6.52-3.81,4.53-2.64,9.08-5.25,13.6-7.92,2.54-1.5,5.01-3.1,7.53-4.62.57-.34,1.24-.72,1.86-.72,4.5-.06,8.99-.03,13.49-.03,1.98,0,4.09.46,5.38-1.77.18-.3.96-.35,1.47-.35,63.98-.01,127.95-.02,191.93.02.68,0,1.35.59,2.03.89.91.41,1.81,1.14,2.73,1.16,5.3.11,10.6.01,15.89.11.49,0,1.38.88,1.38,1.35.07,14.16,0,28.33.11,42.49.03,3.36.84,6.71,1,10.08.44,9.14.8,18.29,1,27.44.05,2.17-.73,4.36-1.01,6.55-.41,3.25-.99,6.51-.99,9.76-.07,41.82-.04,83.64-.1,125.46,0,1-.51,2.37-1.26,2.94-2.37,1.8-4.46,4.51-8.03,3.64-.53-.13-1.29-.88-1.29-1.34-.06-34.03-.06-68.05-.06-102.08,0-.79,0-1.59,0-2.73Z"/>
  <path d="m318.93,148.61c-.82.34-1.64.99-2.46.99-59.92.05-119.85.04-179.77.04h-1.72l.19-1.09c-.99-.35-1.98-1-2.97-1.01-12.64-.07-25.29-.19-37.93.08-2.56.05-5.24,1.38-7.61,2.62-4.69,2.45-9.21,5.23-13.78,7.91-3.28,1.93-6.46,4.01-9.78,5.87-4.32,2.43-8.79,4.58-13.07,7.07-4.24,2.46-8.31,5.2-12.47,7.79-.96.6-1.92,1.33-2.98,1.63-1.29.37-2.77.51-2.34-1.74.16-.82.14-1.68.16-2.53.12-7.3.58-7.86,7.33-10.6,1.66-.67,3.06-1.98,4.63-2.9,1.41-.82,2.94-1.45,4.35-2.27,2.75-1.61,5.41-3.37,8.18-4.93,6.21-3.49,12.48-6.86,18.69-10.35,1.49-.84,2.78-2.03,4.24-2.94.84-.52,1.83-1.12,2.76-1.12,18.7-.06,37.4-.04,56.09-.08.63,0,1.26-.51,1.89-.79,1.82-.79,3.64-2.28,5.46-2.28,53.87-.12,107.74-.11,161.6-.04,1.46,0,2.92.96,4.37,1.48,1.55.55,3.1,1.58,4.66,1.59,17.67.11,35.35.06,53.02.12.42,0,1.2.75,1.2,1.16.05,74.2.07,148.39-.12,222.59,0,1.27-2.48,2.59-3.89,3.78-.61.52-1.39,1-2.16,1.11-2,.29-3.51.52-3.5-2.73.12-72.64.1-145.28.03-217.91,0-.55-1.01-1.57-1.55-1.57-13.18-.09-26.35-.07-39.53-.07h-1.44l.2,1.11Z"/>
  <path d="m388.04,355.22c0-1.2,0-1.95,0-2.7,0-73.13,0-146.26-.07-219.39,0-.55-1-1.59-1.53-1.59-27.42-.08-54.85-.07-82.27-.07-.48,0-.96,0-1.45,0l.22,1.09c-.96.35-1.92,1-2.88,1-49.02.05-98.03.05-147.05,0-.85,0-1.7-.66-2.56-1.01.09-.36.19-.72.28-1.09h-1.69c-27.51,0-55.03-.07-82.54.12-2.55.02-5.25,1.38-7.61,2.62-4.65,2.43-9.13,5.2-13.66,7.86-3.31,1.95-6.56,4.02-9.9,5.92-.77.44-1.83.38-2.76.55-.1-.7-.26-1.4-.27-2.11-.02-1.24.31-2.55.04-3.73-.9-3.81,1.8-4.67,4.36-5.92,2.84-1.39,5.57-3.04,8.29-4.66,3.76-2.24,7.47-4.58,11.23-6.82.45-.27,1.11-.23,1.67-.23,32.86,0,65.71.01,98.57-.06,1.91,0,3.83-.7,5.73-1.11,1.4-.3,2.78-.93,4.17-.94,40.74-.05,81.47-.05,122.21,0,.9,0,1.79.79,2.71,1.15.89.35,1.81.9,2.72.9,34.01.04,68.03.03,102.04.1.54,0,1.54,1.03,1.54,1.58.07,73.08.02,146.17.21,219.25,0,3.64-1.61,5.12-4.04,6.56-1.73,1.02-3.64,1.73-5.72,2.69Z"/>
  <path d="m55.63,100.47c.48-3.37,3.17-4.37,5.56-5.25,2.1-.77,4.47-1.12,6.72-1.12,106.97-.05,213.95-.04,320.92-.04,3.42,0,7.84,3.05,7.7,5.38-.02.36-.58.77-.99,1.01-.27.15-.7.03-1.05.03-112.27,0-224.54,0-336.81,0-.62,0-1.23,0-2.06,0Z"/>
  <path d="m369.81,84.44h-1.69c-94.24,0-188.48,0-282.73-.03-.63,0-1.26-.43-1.89-.67.49-.85.79-1.94,1.5-2.51,6.44-5.1,14.07-3.13,21.23-3.14,84.94-.11,169.88-.07,254.81-.07,3.82,0,8.89,3.63,8.75,6.41Z"/>
  <path d="m342.38,69.47h-2.03c-75.81,0-151.62,0-227.44-.03-.54,0-1.08-.43-1.62-.66.45-.84.69-1.98,1.38-2.46,1.35-.95,2.9-1.69,4.46-2.22,1.56-.53,3.24-1,4.87-1,69.8-.05,139.61-.05,209.41-.02,4.64,0,7.83,2.82,10.97,6.39Z"/>
  <path d="m316.39,54.46h-179.24c1.31-1.38,2.03-2.37,2.97-3.11,5.18-4.06,11.29-3.27,17.26-3.27,50.13,0,100.25,0,150.38,0,3.7,0,8.76,3.66,8.63,6.37Z"/>
  <path d="m165.54,38.38c2.86-3.05,5.85-5.23,9.83-5.23,35.21-.04,70.42-.13,105.63.16,3.04.03,6.06,2.65,9.1,4.07l-.44,1h-124.11Z"/>
  <path d="m265.58,24.5h-74c-.21-.31-.42-.62-.62-.93,1.61-1.09,3.09-2.55,4.86-3.16,2.2-.76,4.64-1.11,6.98-1.13,17.49-.09,34.98-.04,52.47-.05,4.18,0,7.15,2.25,10.32,5.28Z"/>
  <path d="m234.96,11.65h-15.85c.23-.37.34-.74.58-.92,5.34-3.86,10.55-4.63,15.27.92Z"/>
</svg>
